HIERARCHY
ROOT root
{
	OFFSET 0.000000 0.000000 0.000000
	CHANNELS 6 Xposition Yposition Zposition Zrotation Yrotation Xrotation
	JOINT lhip
	{
		OFFSET 0.058581 -0.082280 -0.017664
		CHANNELS 3 Zrotation Yrotation Xrotation
		JOINT lknee
		{
			OFFSET 0.043451 -0.386469 0.008037
			CHANNELS 3 Zrotation Yrotation Xrotation
			JOINT lankle
			{
				OFFSET -0.014790 -0.426874 -0.037428
				CHANNELS 3 Zrotation Yrotation Xrotation
				JOINT ltoe
				{
					OFFSET 0.041054 -0.060286 0.122042
					CHANNELS 3 Zrotation Yrotation Xrotation
					End Site
					{
						OFFSET 0.000000 0.000000 0.000000
					}
				}
			}
		}
	}
	JOINT rhip
	{
		OFFSET -0.060310 -0.090513 -0.013543
		CHANNELS 3 Zrotation Yrotation Xrotation
		JOINT rknee
		{
			OFFSET -0.043257 -0.383688 -0.004843
			CHANNELS 3 Zrotation Yrotation Xrotation
			JOINT rankle
			{
				OFFSET 0.019056 -0.420046 -0.034562
				CHANNELS 3 Zrotation Yrotation Xrotation
				JOINT rtoe
				{
					OFFSET -0.034840 -0.062106 0.130323
					CHANNELS 3 Zrotation Yrotation Xrotation
					End Site
					{
						OFFSET 0.000000 0.000000 0.000000
					}
				}
			}
		}
	}
	JOINT lowerback
	{
		OFFSET 0.004439 0.124404 -0.038385
		CHANNELS 3 Zrotation Yrotation Xrotation
		JOINT upperback
		{
			OFFSET 0.004488 0.137956 0.026820
			CHANNELS 3 Zrotation Yrotation Xrotation
			JOINT chest
			{
				OFFSET -0.002265 0.056032 0.002855
				CHANNELS 3 Zrotation Yrotation Xrotation
				JOINT lowerneck
				{
					OFFSET -0.013390 0.211636 -0.033468
					CHANNELS 3 Zrotation Yrotation Xrotation
					JOINT upperneck
					{
						OFFSET 0.010113 0.088937 0.050410
						CHANNELS 3 Zrotation Yrotation Xrotation
						End Site
						{
							OFFSET 0.000000 0.000000 0.000000
						}
					}
				}
				JOINT lclavicle
				{
					OFFSET 0.071702 0.114000 -0.018898
					CHANNELS 3 Zrotation Yrotation Xrotation
					JOINT lshoulder
					{
						OFFSET 0.122921 0.045205 -0.019046
						CHANNELS 3 Zrotation Yrotation Xrotation
						JOINT lelbow
						{
							OFFSET 0.255332 -0.015649 -0.022946
							CHANNELS 3 Zrotation Yrotation Xrotation
							JOINT lwrist
							{
								OFFSET 0.265709 0.012698 -0.007375
								CHANNELS 3 Zrotation Yrotation Xrotation
								End Site
								{
									OFFSET 0.000000 0.000000 0.000000
								}
							}
						}
					}
				}
				JOINT rclavicle
				{
					OFFSET -0.082954 0.112472 -0.023707
					CHANNELS 3 Zrotation Yrotation Xrotation
					JOINT rshoulder
					{
						OFFSET -0.113228 0.046853 -0.008472
						CHANNELS 3 Zrotation Yrotation Xrotation
						JOINT relbow
						{
							OFFSET -0.260127 -0.014369 -0.031269
							CHANNELS 3 Zrotation Yrotation Xrotation
							JOINT rwrist
							{
								OFFSET -0.269108 0.006794 -0.006027
								CHANNELS 3 Zrotation Yrotation Xrotation
								End Site
								{
									OFFSET 0.000000 0.000000 0.000000
								}
							}
						}
					}
				}
			}
		}
	}
}
MOTION
Frames: 17
Frame Time: 0.033333
-0.675312 0.348842 1.000709 -113.792122 -1.664991 97.000081 4.654226 5.089109 -4.303862 2.295752 12.443235 24.781807 -4.517304 -0.220304 -5.243672 0.000000 -0.000000 0.000000 8.617220 -1.700195 -32.192555 -4.511161 -22.444449 20.359978 5.223998 1.516962 0.700835 0.000000 -0.000000 0.000000 -3.950641 -0.481543 14.441372 -1.140132 -3.942933 6.982499 1.510004 0.537500 -3.396780 -4.778465 3.774008 -20.138344 7.268999 -8.949185 -13.759113 1.202853 -10.910880 -4.894157 -76.598775 -15.727020 6.638994 121.807647 -76.520057 -81.384457 -12.269574 -14.939781 6.762810 -0.198577 13.310874 -6.021347 73.124987 25.929212 4.221155 -132.105617 57.959149 -88.710138 27.430803 7.714013 4.402371 
-0.705264 0.361592 1.005337 -116.354596 -2.967909 96.754852 4.688051 4.936206 -4.061367 1.606052 14.469404 29.068168 -6.401814 -1.326037 2.656970 0.000000 -0.000000 0.000000 8.534907 -1.151483 -29.047711 -4.505728 -20.145549 18.522097 2.244827 0.939595 3.691413 0.000000 -0.000000 0.000000 -4.553780 -0.351073 12.914066 -1.739709 -4.127724 7.279185 0.798501 0.427006 -3.350475 -5.026675 2.747669 -18.661662 8.167467 -8.516969 -13.229231 0.725524 -10.607307 -4.349704 -76.627628 -15.338948 6.861452 121.989292 -76.938521 -82.022043 -12.296834 -14.918351 6.206844 -0.299035 12.588517 -5.583837 74.039345 24.891652 4.809460 -132.936078 58.688638 -89.768719 25.556227 7.668619 3.145979 
-0.735999 0.374456 1.006096 -118.498152 -3.656672 95.990076 6.035353 4.349279 -5.950640 1.144363 14.795475 37.327330 -8.711588 -2.384720 11.446616 0.000000 -0.000000 0.000000 7.918644 0.715692 -25.950252 -4.751970 -17.420894 19.774601 -0.490729 2.249352 0.209382 0.000000 -0.000000 0.000000 -4.112735 -0.257400 12.562289 -2.059391 -4.122974 7.366805 -0.121217 0.501809 -3.857286 -5.168890 2.133712 -17.518779 8.392368 -8.548432 -12.705132 -0.151703 -10.586255 -4.121227 -76.385732 -14.835603 7.089042 123.893213 -77.329492 -83.993937 -13.010435 -14.655897 5.448462 -0.592984 11.803446 -5.411706 74.294499 23.573988 4.029639 -134.633688 59.053953 -91.089127 25.256277 8.908333 0.696127 
-0.763523 0.386114 1.000959 -119.597347 -4.180392 95.100958 6.992158 2.479817 -10.124394 0.141822 12.367481 47.933004 -8.310995 -3.112337 14.903226 0.000000 -0.000000 0.000000 7.177699 0.749436 -24.262815 -4.240202 -15.310469 23.235389 -2.889168 2.186455 -5.404055 0.000000 -0.000000 0.000000 -3.802440 0.416221 13.029271 -1.763706 -4.609958 6.669359 -0.320320 0.218671 -3.170810 -5.085592 2.194809 -18.282634 8.157473 -9.004965 -12.365615 -0.407736 -11.198210 -4.381600 -76.712044 -15.016014 7.148183 127.238831 -77.241866 -86.601666 -13.059336 -14.274035 4.430033 -1.097138 11.329502 -5.813850 72.790959 22.673815 1.998998 -136.370053 58.718014 -92.388626 25.451158 9.348801 -0.471202 
-0.787742 0.396277 0.992156 -120.939190 -4.228689 93.610177 7.916538 1.234440 -14.877762 0.112252 11.130345 57.846209 -6.710491 -1.999887 11.438569 0.000000 -0.000000 0.000000 7.203997 -0.263018 -22.284488 -4.006863 -13.992068 26.860201 -4.454508 2.305397 -10.765593 0.000000 -0.000000 0.000000 -3.047688 1.440020 14.857914 -1.418623 -5.117741 5.823184 -0.090464 -0.037064 -2.026551 -4.962252 1.849733 -20.053079 7.881046 -9.201419 -12.250320 -0.277329 -12.518646 -5.039327 -77.639394 -15.460477 7.040347 128.959322 -76.708077 -87.649052 -10.861359 -14.673530 3.827183 -2.060429 11.978424 -6.396582 70.248370 22.349147 -0.360545 -136.487846 57.819896 -92.368553 24.187039 9.837454 -0.811380 
-0.809868 0.405496 0.983172 -123.591021 -4.071902 92.602439 8.571942 0.190325 -19.729810 1.097034 11.833474 63.947881 -3.747564 -0.366022 3.616621 0.000000 -0.000000 0.000000 7.429333 -0.061854 -21.283798 -4.023215 -12.392544 30.855850 -5.120225 1.545151 -14.132363 0.000000 -0.000000 0.000000 -2.433965 2.479735 16.589435 -0.990800 -5.080026 5.553389 0.174699 -0.036228 -1.607586 -4.687775 2.083315 -21.902732 7.244666 -9.354608 -12.049137 -0.169507 -13.371912 -5.606377 -78.732528 -16.285106 6.965826 129.983438 -75.957225 -87.942900 -12.221611 -14.090857 3.767766 -2.192061 12.532118 -6.845698 68.544559 23.254137 -1.586906 -135.524421 56.863857 -91.199775 25.047522 9.669524 -0.162011 
-0.830696 0.415523 0.977209 -126.996567 -3.680496 91.838939 8.928821 -0.064890 -24.067318 1.478460 11.761177 64.666423 -2.555977 -0.881581 -2.604775 0.000000 -0.000000 0.000000 7.781826 1.482051 -20.584937 -4.257381 -10.097627 35.024074 -4.591730 2.195381 -15.890989 0.000000 -0.000000 0.000000 -2.266756 3.183450 18.085979 -0.346204 -4.851044 5.613289 0.573378 0.431790 -1.844445 -4.610865 2.715047 -22.340648 7.046474 -9.512386 -12.915181 -0.074806 -14.009572 -6.012618 -79.428588 -16.621455 6.900913 130.232208 -75.292508 -87.287244 -14.228311 -13.406120 3.890512 -1.940643 13.482879 -6.938419 68.029174 24.646968 -2.254328 -134.124109 55.743836 -88.515272 26.698600 9.158161 0.614392 
-0.851924 0.426932 0.973682 -130.205657 -3.212120 91.397629 8.774395 -0.231739 -27.268268 0.324587 10.537795 59.746715 -2.488562 -2.147190 -6.915127 0.000000 -0.000000 0.000000 8.588713 2.473018 -18.661002 -4.222028 -7.861196 36.319820 -4.526710 2.502641 -18.206251 0.000000 -0.000000 0.000000 -2.040456 3.680490 18.933412 -0.080269 -4.965890 5.198749 0.980220 0.767486 -1.540496 -4.419515 2.982796 -22.056437 7.563297 -9.731168 -13.588410 0.015982 -14.987828 -5.967262 -79.369694 -16.319542 6.745184 129.933967 -74.811621 -86.376414 -12.846594 -13.602186 3.583089 -1.898455 14.506340 -6.664213 67.678310 25.052333 -2.895838 -133.772399 56.477119 -89.189400 23.539015 11.684250 -1.551958 
-0.873131 0.438610 0.973276 -133.498018 -3.202390 91.518707 8.012096 -1.001442 -29.642167 -0.183347 9.416872 49.905756 -2.520515 -4.112284 -7.895335 0.000000 -0.000000 0.000000 9.237449 2.836669 -16.277301 -4.164801 -4.847941 35.317467 -4.636114 2.025894 -19.176249 0.000000 -0.000000 0.000000 -1.977006 4.018523 18.228750 0.014057 -5.682630 6.241885 0.745021 1.568590 -1.815871 -4.151970 3.216328 -22.087624 7.964112 -10.770495 -12.926763 0.685446 -14.784983 -6.663550 -79.490155 -16.008807 7.332943 129.429357 -75.164581 -86.028088 -11.841185 -14.216192 3.433030 -1.432459 15.123363 -6.519847 69.207714 24.919123 -1.862323 -133.732403 54.519968 -87.216867 26.956969 9.018692 0.880317 
-0.894203 0.452484 0.976609 -137.095184 -3.185972 91.583898 7.088720 -2.148519 -29.441414 -1.878225 4.856404 36.024248 -6.302283 -7.744520 -5.757828 0.000000 -0.000000 0.000000 9.674190 3.257303 -13.618541 -4.893674 -2.981013 34.188325 -4.311777 2.942485 -19.561891 0.000000 -0.000000 0.000000 -2.149677 4.442679 18.477560 0.082254 -5.806444 5.967340 0.893572 1.803713 -1.642653 -4.157619 4.071877 -22.558782 7.870898 -12.400955 -13.044117 0.774243 -13.456888 -7.531953 -80.325280 -15.074967 8.719107 130.781669 -75.753861 -87.460237 -12.228388 -14.142449 3.673415 -0.541366 14.439558 -6.926891 70.942216 24.598206 -0.081533 -134.691728 54.696556 -88.885578 25.834063 8.578735 1.802218 
-0.916045 0.466251 0.982709 -141.705738 -2.785985 91.768706 6.486461 -3.410298 -27.883576 -1.316560 -0.978020 23.809411 -10.643751 -10.151997 -1.281027 0.000000 -0.000000 0.000000 9.640201 3.646147 -11.420774 -4.967106 -1.369844 33.321408 -3.216078 5.116253 -18.743804 0.000000 -0.000000 0.000000 -1.804815 4.921652 18.343605 -0.075772 -5.355440 5.804825 0.861129 1.966159 -1.306154 -4.732711 4.768144 -22.104431 8.225941 -13.366569 -14.010672 0.777944 -13.293232 -7.855722 -80.763359 -14.442432 9.705477 129.147434 -75.318990 -86.691763 -11.633818 -14.578431 3.676832 -0.373666 14.287740 -7.211929 72.071503 23.529720 0.888418 -135.500520 55.058396 -90.790211 24.404011 8.180835 2.151248 
-0.938442 0.482475 0.988588 -146.857520 -2.150454 92.114365 6.372650 -3.487920 -26.174395 1.408674 -3.131354 17.744881 -12.576619 -10.281167 3.603508 0.000000 -0.000000 0.000000 9.148699 3.727756 -10.420067 -4.458054 -0.001914 34.266020 -2.295836 7.640353 -15.772011 0.000000 -0.000000 0.000000 -1.968826 5.002377 16.952988 0.168860 -5.090682 7.099644 1.230973 2.141222 -2.341707 -5.049655 4.605989 -19.600678 8.188321 -12.692937 -15.082806 0.031759 -13.692585 -7.036317 -80.484572 -13.852000 9.353425 126.074127 -74.888436 -84.210175 -11.782444 -14.910223 4.281451 -0.271403 15.229318 -6.506974 71.613950 23.339704 0.648278 -135.239235 56.089844 -91.202416 25.136500 8.661386 1.806898 
-0.960633 0.499673 0.991648 -153.177635 -1.389662 92.128018 7.150243 -3.379113 -23.675215 1.580218 -2.565472 17.178705 -12.567002 -9.078563 7.510767 0.000000 -0.000000 0.000000 7.929816 3.966435 -11.282933 -3.075749 0.738273 38.826470 -1.007564 10.105388 -11.359402 0.000000 -0.000000 0.000000 -1.639786 5.049599 15.629278 0.104507 -4.343456 8.138847 0.758375 2.075071 -2.354383 -4.722925 4.939601 -19.274824 7.749934 -12.715015 -14.377483 0.113726 -13.376124 -6.976639 -80.061409 -13.475565 9.486185 124.925884 -75.011717 -83.162064 -10.140205 -15.407154 5.085705 0.153580 14.970428 -6.893007 71.615683 23.749099 1.335708 -135.064387 57.793087 -91.418028 24.932815 8.995128 1.747664 
-0.980549 0.516274 0.992606 -160.058343 -0.506503 91.693160 9.138545 -3.994348 -20.302829 0.353375 0.172312 19.830701 -8.100165 -5.145995 0.148606 0.000000 -0.000000 0.000000 5.994543 4.143743 -14.700263 -1.150035 -0.402126 47.255270 1.645118 12.033038 -3.461588 0.000000 -0.000000 0.000000 -2.384295 4.567867 15.656544 0.436856 -3.761735 8.367059 0.966094 2.691642 -2.862962 -4.511961 5.792849 -18.801621 7.130291 -12.260400 -13.780455 0.309159 -12.864051 -7.220433 -79.734020 -12.712642 9.087856 127.070543 -75.597196 -85.398154 -10.230716 -14.291438 4.489699 0.621971 15.068836 -6.677611 70.456931 24.285435 1.973543 -135.653394 59.078553 -92.142095 23.597306 8.584980 1.464186 
-1.000191 0.532121 0.987160 -165.749122 -0.160013 91.039183 9.756053 -2.595857 -17.257923 -1.348520 1.527003 21.745521 -5.058976 -3.356760 -6.104178 0.000000 -0.000000 0.000000 3.506899 3.427783 -19.397360 -0.485415 -2.734893 56.996442 3.499779 12.388897 1.041397 0.000000 -0.000000 0.000000 -2.790964 3.748059 16.285151 0.543663 -3.465396 8.014852 1.063131 2.706355 -2.592861 -4.560007 5.822223 -19.173676 6.900538 -11.855478 -13.145845 0.906217 -13.846948 -7.268519 -78.735681 -12.873106 8.136928 128.531721 -74.801854 -87.395957 -10.205506 -13.382152 4.773031 0.220200 15.941360 -6.564327 69.287692 24.668810 1.714419 -137.515773 58.641785 -94.375329 23.617165 7.710903 1.059374 
-1.018279 0.546696 0.978532 -169.651061 0.057863 90.677048 9.002069 0.750006 -16.196458 -1.807758 2.494570 25.176315 -3.525831 -2.728958 -11.849019 0.000000 -0.000000 0.000000 1.576826 1.391769 -24.380626 -4.336892 -7.595004 65.113086 1.916698 6.840277 -2.759269 0.000000 -0.000000 0.000000 -2.714345 2.225271 17.908077 0.593954 -3.326242 6.189431 1.090570 1.674482 -2.292947 -3.818172 5.327233 -19.352393 6.276962 -11.218370 -12.445163 0.987139 -14.651662 -6.090984 -77.360498 -14.664914 6.596909 127.531241 -74.803789 -86.106015 -9.720045 -14.856956 3.556926 -0.499965 15.681248 -6.723056 69.780853 25.434513 1.704699 -138.001751 59.033015 -94.728634 24.108781 9.191015 0.199474 
-1.032354 0.561268 0.971744 -173.163322 0.321519 90.585857 8.785808 1.713016 -14.515303 -2.122507 4.122795 26.208691 -1.919049 -1.340145 -14.957847 0.000000 -0.000000 0.000000 0.763433 0.623020 -28.550416 -5.789536 -10.602365 67.498088 0.593242 5.317062 -7.170550 0.000000 -0.000000 0.000000 -2.657795 1.155977 19.112966 0.709937 -3.591571 6.074688 1.151096 0.785271 -2.966760 -3.470749 4.826924 -19.600164 5.953335 -11.230067 -13.125196 0.349772 -15.720178 -5.892918 -75.174575 -15.940648 6.048010 124.795548 -74.755479 -83.853186 -10.050288 -14.025653 4.442748 -0.156181 16.121348 -6.572722 69.030248 26.129458 1.680505 -137.652608 58.700730 -94.744817 23.563964 9.786969 -0.103171 
